<mxfile
  host="Electron" 
  agent="Mozilla/5.0 (Macintosh; Intel Mac OS X 10_15_7) AppleWebKit/537.36 (KHTML, like Gecko) draw.io/25.0.2 Chrome/128.0.6613.186 Electron/32.2.5 Safari/537.36" 
  version="25.0.2"
  >
  <diagram
    name="-"
    >
    <mxGraphModel
      grid="1" 
      gridSize="10" 
      guides="1" 
      tooltips="1" 
      connect="1" 
      arrows="1" 
      fold="1" 
      page="1" 
      pageScale="1" 
      pageWidth="1" 
      pageHeight="1" 
      math="0" 
      shadow="0"
      >
      <root>
        <mxCell
          id="page"
          />
        <mxCell
          id="root" 
          parent="page"
          />
        <mxCell
          style="verticalAlign=top;aspect=fixed;align=center;spacingLeft=5;spacingRight=5;spacingBottom=5;strokeColor=none;" 
          id="shape_" 
          parent="root" 
          value=" " 
          vertex="1"
          >
          <mxGeometry
            as="geometry" 
            width="94" 
            height="102" 
            x="0" 
            y="0"
            />
          </mxCell>
        <mxCell
          style="rounded=1;whiteSpace=wrap;verticalAlign=top;align=center;sketch=0;html=1;labelPosition=center;verticalLabelPosition=bottom;spacingTop=-6;fontSize=11;fontStyle=1;fontColor=#999999;shape=image;aspect=fixed;imageAspect=0;image=data:image/svg+xml,PHN2ZyB4bWxucz0iaHR0cDovL3d3dy53My5vcmcvMjAwMC9zdmciIGhlaWdodD0iMTkuOTg2IiB3aWR0aD0iMTUuNzIzIiB2aWV3Qm94PSIwIDAgMTUuNzIzIDE5Ljk4NiI+JiN4YTsJPHBhdGggZmlsbD0iIzQyODVmNCIgZD0iTTMuNjM0IDE0LjU4NnYtMy43NWMwLS4xNS0uMjktLjM0LS40OS0uNDNhNS40NiA1LjQ2IDAgMSAxIDcuNDQtNi44MyA1LjQgNS40IDAgMCAxLTIuNzMgNi43OS44Mi44MiAwIDAgMC0uNTQuOXY4LjcyaC0zLjY4di0xLjc1SC4wMjR2LTMuNjV6bTMuNjQtOS4xMWExLjgyIDEuODIgMCAxIDAtMy42NC0uMDYgMS44MyAxLjgzIDAgMCAwIDEuOCAxLjg1aDBhMS44NCAxLjg0IDAgMCAwIDEuODMtMS43OXoiLz4mI3hhOwk8cGF0aCBmaWxsPSIjNjY5ZGY2IiBkPSJNMTUuMzc0IDMuNTc2YTUuNDQgNS40NCAwIDAgMC02LjMyLTMuNDQgNS40NCA1LjQ0IDAgMCAxIDEuMTMgMTAuMjMuODQuODQgMCAwIDAtLjU1Ljl2OC43MmgyLjQzdi04LjcxYS44My44MyAwIDAgMSAuNTUtLjkgNS40IDUuNCAwIDAgMCAyLjc2LTYuOHoiLz4mI3hhOzwvc3ZnPg;strokeColor=none;" 
          id="security_key_enforcement_" 
          parent="shape_" 
          value=" " 
          vertex="1"
          >
          <mxGeometry
            width="34" 
            height="42" 
            as="geometry" 
            x="30" 
            y="30"
            />
          </mxCell>
        </root>
      </mxGraphModel>
    </diagram>
  </mxfile>